<svg width="283" height="120" viewBox="0 0 283 120" fill="none" xmlns="http://www.w3.org/2000/svg">
<path d="M238.69 5.82324H58.1494L13.587 49.7162L56.1122 91.8433H240.473L282.998 49.7162L238.69 5.82324Z" fill="#5190AE" fill-opacity="0.3"/>
<path d="M219.247 14.4422H46.386L1.99944 57.1359L46.386 99.3418H169.189L184.478 113.98H256.236M256.236 113.98V108.368H266.1V118.127H256.236V113.98ZM51.5645 93.4866H183.984L190.396 99.0978H220.233L262.894 56.892L219.001 14.4422M112.226 14.4422L124.309 2H238.728L262.894 25.9085" stroke="url(#paint0_linear_14_609)" stroke-width="2.38944"/>
<path d="M86.288 68C85.824 68 85.464 67.872 85.208 67.616C84.952 67.36 84.824 67.008 84.824 66.56V52.496C84.824 52.032 84.96 51.664 85.232 51.392C85.52 51.104 85.896 50.96 86.36 50.96C86.84 50.96 87.216 51.104 87.488 51.392C87.776 51.664 87.92 52.032 87.92 52.496V65.456H94.664C95.624 65.456 96.104 65.88 96.104 66.728C96.104 67.576 95.624 68 94.664 68H86.288ZM99.6725 68.144C99.2085 68.144 98.8325 68 98.5445 67.712C98.2725 67.424 98.1365 67.048 98.1365 66.584V52.496C98.1365 52.032 98.2725 51.664 98.5445 51.392C98.8325 51.104 99.2085 50.96 99.6725 50.96C100.153 50.96 100.529 51.104 100.801 51.392C101.089 51.664 101.233 52.032 101.233 52.496V66.584C101.233 67.048 101.089 67.424 100.801 67.712C100.529 68 100.153 68.144 99.6725 68.144ZM110.431 68.12C109.951 68.12 109.567 67.984 109.279 67.712C109.007 67.424 108.871 67.048 108.871 66.584V53.624H104.503C103.543 53.624 103.062 53.2 103.062 52.352C103.062 51.504 103.543 51.08 104.503 51.08H116.335C117.295 51.08 117.775 51.504 117.775 52.352C117.775 53.2 117.295 53.624 116.335 53.624H111.967V66.584C111.967 67.048 111.823 67.424 111.535 67.712C111.263 67.984 110.895 68.12 110.431 68.12ZM121.093 68C120.629 68 120.261 67.872 119.989 67.616C119.733 67.36 119.605 67 119.605 66.536V52.544C119.605 52.08 119.733 51.72 119.989 51.464C120.261 51.208 120.629 51.08 121.093 51.08H129.757C130.221 51.08 130.581 51.184 130.837 51.392C131.093 51.6 131.221 51.896 131.221 52.28C131.221 52.68 131.093 52.992 130.837 53.216C130.581 53.424 130.221 53.528 129.757 53.528H122.629V58.184H129.277C129.741 58.184 130.101 58.288 130.357 58.496C130.613 58.704 130.741 59.008 130.741 59.408C130.741 59.792 130.613 60.088 130.357 60.296C130.101 60.504 129.741 60.608 129.277 60.608H122.629V65.552H129.757C130.221 65.552 130.581 65.664 130.837 65.888C131.093 66.096 131.221 66.4 131.221 66.8C131.221 67.184 131.093 67.48 130.837 67.688C130.581 67.896 130.221 68 129.757 68H121.093ZM147.274 66.056C147.466 66.344 147.562 66.624 147.562 66.896C147.562 67.264 147.41 67.568 147.106 67.808C146.818 68.048 146.474 68.168 146.074 68.168C145.818 68.168 145.57 68.112 145.33 68C145.106 67.872 144.914 67.688 144.754 67.448L141.562 62.6C141.242 62.088 140.898 61.728 140.53 61.52C140.178 61.312 139.714 61.208 139.138 61.208H136.786V66.584C136.786 67.064 136.65 67.448 136.378 67.736C136.106 68.008 135.738 68.144 135.274 68.144C134.81 68.144 134.434 68.008 134.146 67.736C133.874 67.448 133.738 67.064 133.738 66.584V52.544C133.738 52.08 133.866 51.72 134.122 51.464C134.394 51.208 134.762 51.08 135.226 51.08H141.226C143.146 51.08 144.602 51.512 145.594 52.376C146.602 53.224 147.106 54.456 147.106 56.072C147.106 57.384 146.73 58.464 145.978 59.312C145.242 60.144 144.194 60.68 142.834 60.92C143.298 61.032 143.706 61.232 144.058 61.52C144.41 61.808 144.754 62.208 145.09 62.72L147.274 66.056ZM140.794 58.832C141.962 58.832 142.818 58.616 143.362 58.184C143.906 57.736 144.178 57.056 144.178 56.144C144.178 55.216 143.906 54.544 143.362 54.128C142.818 53.696 141.962 53.48 140.794 53.48H136.762V58.832H140.794ZM165.574 66.152C165.67 66.36 165.718 66.568 165.718 66.776C165.718 67.144 165.566 67.456 165.262 67.712C164.974 67.968 164.638 68.096 164.254 68.096C163.998 68.096 163.758 68.032 163.534 67.904C163.31 67.76 163.134 67.544 163.006 67.256L161.566 64.04H153.118L151.678 67.256C151.55 67.544 151.374 67.76 151.15 67.904C150.926 68.032 150.678 68.096 150.406 68.096C150.038 68.096 149.702 67.968 149.398 67.712C149.094 67.456 148.942 67.144 148.942 66.776C148.942 66.568 148.99 66.36 149.086 66.152L155.71 51.92C155.854 51.6 156.07 51.36 156.358 51.2C156.662 51.024 156.982 50.936 157.318 50.936C157.654 50.936 157.966 51.024 158.254 51.2C158.558 51.36 158.782 51.6 158.926 51.92L165.574 66.152ZM154.174 61.64H160.51L157.342 54.512L154.174 61.64ZM181.587 66.056C181.779 66.344 181.875 66.624 181.875 66.896C181.875 67.264 181.723 67.568 181.419 67.808C181.131 68.048 180.787 68.168 180.387 68.168C180.131 68.168 179.883 68.112 179.643 68C179.419 67.872 179.227 67.688 179.067 67.448L175.875 62.6C175.555 62.088 175.211 61.728 174.843 61.52C174.491 61.312 174.027 61.208 173.451 61.208H171.099V66.584C171.099 67.064 170.963 67.448 170.691 67.736C170.419 68.008 170.051 68.144 169.587 68.144C169.123 68.144 168.747 68.008 168.459 67.736C168.187 67.448 168.051 67.064 168.051 66.584V52.544C168.051 52.08 168.179 51.72 168.435 51.464C168.707 51.208 169.075 51.08 169.539 51.08H175.539C177.459 51.08 178.915 51.512 179.907 52.376C180.915 53.224 181.419 54.456 181.419 56.072C181.419 57.384 181.043 58.464 180.291 59.312C179.555 60.144 178.507 60.68 177.147 60.92C177.611 61.032 178.019 61.232 178.371 61.52C178.723 61.808 179.067 62.208 179.403 62.72L181.587 66.056ZM175.107 58.832C176.275 58.832 177.131 58.616 177.675 58.184C178.219 57.736 178.491 57.056 178.491 56.144C178.491 55.216 178.219 54.544 177.675 54.128C177.131 53.696 176.275 53.48 175.107 53.48H171.075V58.832H175.107ZM195.111 51.488C195.399 51.136 195.743 50.96 196.143 50.96C196.511 50.96 196.839 51.104 197.127 51.392C197.415 51.664 197.559 51.992 197.559 52.376C197.559 52.696 197.439 53 197.199 53.288L191.751 59.936V66.584C191.751 67.08 191.607 67.464 191.319 67.736C191.031 68.008 190.663 68.144 190.215 68.144C189.751 68.144 189.375 68.008 189.087 67.736C188.799 67.464 188.655 67.08 188.655 66.584V59.936L183.207 53.288C182.967 53 182.847 52.696 182.847 52.376C182.847 51.992 182.991 51.664 183.279 51.392C183.567 51.104 183.895 50.96 184.263 50.96C184.663 50.96 185.007 51.136 185.295 51.488L190.215 57.584L195.111 51.488Z" fill="#CACACA"/>
<defs>
<linearGradient id="paint0_linear_14_609" x1="260.955" y1="60.252" x2="44.3012" y2="60.252" gradientUnits="userSpaceOnUse">
<stop stop-color="#65CFB4"/>
<stop offset="1" stop-color="#5CA8CC"/>
</linearGradient>
</defs>
</svg>
