<svg width="283" height="120" viewBox="0 0 283 120" fill="none" xmlns="http://www.w3.org/2000/svg">
<path d="M226.663 7.75439H44.871L0 51.7974L42.8197 94.0685H228.457L271.277 51.7974L226.663 7.75439Z" fill="#5190AE" fill-opacity="0.3"/>
<path d="M62.2483 14.4847H236.307L281.001 57.3244L236.307 99.6745H112.653L97.2586 114.362H25.0033M25.0033 114.362V108.732H15.0713V118.524H25.0033V114.362ZM231.092 93.7994H97.7552L91.2994 99.4297H61.2551L18.2992 57.0796L62.4966 14.4847M170.011 14.4847L157.844 2H42.6326L18.2992 25.9902" stroke="url(#paint0_linear_14_614)" stroke-width="2.39761"/>
<path d="M94.36 60.144C93.896 60.144 93.52 60 93.232 59.712C92.96 59.424 92.824 59.048 92.824 58.584V44.544C92.824 44.08 92.952 43.72 93.208 43.464C93.48 43.208 93.848 43.08 94.312 43.08H102.736C103.712 43.08 104.2 43.496 104.2 44.328C104.2 45.144 103.712 45.552 102.736 45.552H95.872V50.16H102.256C103.232 50.16 103.72 50.576 103.72 51.408C103.72 52.224 103.232 52.632 102.256 52.632H95.872V58.584C95.872 59.048 95.736 59.424 95.464 59.712C95.192 60 94.824 60.144 94.36 60.144ZM120.371 58.152C120.467 58.36 120.515 58.568 120.515 58.776C120.515 59.144 120.363 59.456 120.059 59.712C119.771 59.968 119.435 60.096 119.051 60.096C118.795 60.096 118.555 60.032 118.331 59.904C118.107 59.76 117.931 59.544 117.803 59.256L116.363 56.04H107.915L106.475 59.256C106.347 59.544 106.171 59.76 105.947 59.904C105.723 60.032 105.475 60.096 105.203 60.096C104.835 60.096 104.499 59.968 104.195 59.712C103.891 59.456 103.739 59.144 103.739 58.776C103.739 58.568 103.787 58.36 103.883 58.152L110.507 43.92C110.651 43.6 110.867 43.36 111.155 43.2C111.459 43.024 111.779 42.936 112.115 42.936C112.451 42.936 112.763 43.024 113.051 43.2C113.355 43.36 113.579 43.6 113.723 43.92L120.371 58.152ZM108.971 53.64H115.307L112.139 46.512L108.971 53.64ZM128.516 60.216C127.284 60.216 126.116 60.056 125.012 59.736C123.924 59.4 123.036 58.952 122.348 58.392C121.98 58.12 121.796 57.736 121.796 57.24C121.796 56.904 121.892 56.616 122.084 56.376C122.292 56.12 122.532 55.992 122.804 55.992C123.092 55.992 123.42 56.104 123.788 56.328C124.476 56.824 125.196 57.184 125.948 57.408C126.7 57.632 127.532 57.744 128.444 57.744C129.612 57.744 130.508 57.544 131.132 57.144C131.756 56.728 132.068 56.128 132.068 55.344C132.068 54.736 131.772 54.272 131.18 53.952C130.604 53.616 129.636 53.296 128.276 52.992C126.868 52.688 125.724 52.336 124.844 51.936C123.964 51.536 123.3 51.024 122.852 50.4C122.404 49.776 122.18 48.984 122.18 48.024C122.18 47.032 122.46 46.144 123.02 45.36C123.58 44.576 124.356 43.968 125.348 43.536C126.356 43.088 127.484 42.864 128.732 42.864C131.02 42.864 132.884 43.472 134.324 44.688C134.532 44.864 134.676 45.04 134.756 45.216C134.852 45.376 134.9 45.584 134.9 45.84C134.9 46.176 134.796 46.472 134.588 46.728C134.396 46.968 134.164 47.088 133.892 47.088C133.732 47.088 133.58 47.064 133.436 47.016C133.308 46.968 133.132 46.88 132.908 46.752C132.252 46.272 131.612 45.92 130.988 45.696C130.38 45.456 129.628 45.336 128.732 45.336C127.644 45.336 126.78 45.56 126.14 46.008C125.516 46.44 125.204 47.048 125.204 47.832C125.204 48.488 125.484 48.992 126.044 49.344C126.604 49.696 127.556 50.024 128.9 50.328C130.324 50.648 131.476 51.008 132.356 51.408C133.252 51.792 133.932 52.288 134.396 52.896C134.876 53.504 135.116 54.264 135.116 55.176C135.116 56.168 134.836 57.048 134.276 57.816C133.732 58.568 132.956 59.16 131.948 59.592C130.956 60.008 129.812 60.216 128.516 60.216ZM151.189 42.96C151.653 42.96 152.021 43.104 152.293 43.392C152.565 43.664 152.701 44.032 152.701 44.496V58.584C152.701 59.048 152.557 59.424 152.269 59.712C151.997 60 151.637 60.144 151.189 60.144C150.725 60.144 150.357 60 150.085 59.712C149.813 59.424 149.677 59.048 149.677 58.584V52.656H141.013V58.584C141.013 59.048 140.869 59.424 140.581 59.712C140.309 60 139.941 60.144 139.477 60.144C139.029 60.144 138.661 60 138.373 59.712C138.101 59.424 137.965 59.048 137.965 58.584V44.496C137.965 44.032 138.101 43.664 138.373 43.392C138.645 43.104 139.013 42.96 139.477 42.96C139.941 42.96 140.309 43.104 140.581 43.392C140.869 43.664 141.013 44.032 141.013 44.496V50.16H149.677V44.496C149.677 44.032 149.813 43.664 150.085 43.392C150.357 43.104 150.725 42.96 151.189 42.96ZM157.876 60.144C157.412 60.144 157.036 60 156.748 59.712C156.476 59.424 156.34 59.048 156.34 58.584V44.496C156.34 44.032 156.476 43.664 156.748 43.392C157.036 43.104 157.412 42.96 157.876 42.96C158.356 42.96 158.732 43.104 159.004 43.392C159.292 43.664 159.436 44.032 159.436 44.496V58.584C159.436 59.048 159.292 59.424 159.004 59.712C158.732 60 158.356 60.144 157.876 60.144ZM170.626 60.216C168.978 60.216 167.546 59.864 166.33 59.16C165.13 58.456 164.202 57.448 163.546 56.136C162.89 54.824 162.562 53.288 162.562 51.528C162.562 49.768 162.882 48.24 163.522 46.944C164.178 45.632 165.114 44.624 166.33 43.92C167.546 43.216 168.978 42.864 170.626 42.864C172.274 42.864 173.698 43.216 174.898 43.92C176.114 44.624 177.042 45.632 177.682 46.944C178.338 48.24 178.666 49.768 178.666 51.528C178.666 53.288 178.338 54.824 177.682 56.136C177.026 57.448 176.09 58.456 174.874 59.16C173.674 59.864 172.258 60.216 170.626 60.216ZM170.626 57.744C172.178 57.744 173.386 57.208 174.25 56.136C175.13 55.064 175.57 53.528 175.57 51.528C175.57 49.528 175.13 48 174.25 46.944C173.386 45.872 172.178 45.336 170.626 45.336C169.058 45.336 167.834 45.872 166.954 46.944C166.09 48 165.658 49.528 165.658 51.528C165.658 53.528 166.09 55.064 166.954 56.136C167.834 57.208 169.058 57.744 170.626 57.744ZM194.609 42.96C195.057 42.96 195.409 43.104 195.665 43.392C195.937 43.664 196.073 44.032 196.073 44.496V58.584C196.073 59.048 195.937 59.424 195.665 59.712C195.393 60 195.041 60.144 194.609 60.144C194.097 60.144 193.705 59.96 193.433 59.592L184.673 48.192V58.584C184.673 59.048 184.545 59.424 184.289 59.712C184.033 60 183.681 60.144 183.233 60.144C182.785 60.144 182.433 60 182.177 59.712C181.921 59.424 181.793 59.048 181.793 58.584V44.496C181.793 44.032 181.929 43.664 182.201 43.392C182.473 43.104 182.833 42.96 183.281 42.96C183.777 42.96 184.161 43.144 184.433 43.512L193.169 54.864V44.496C193.169 44.032 193.297 43.664 193.553 43.392C193.825 43.104 194.177 42.96 194.609 42.96Z" fill="#CACACA"/>
<defs>
<linearGradient id="paint0_linear_14_614" x1="20.2517" y1="60.4512" x2="238.406" y2="60.4512" gradientUnits="userSpaceOnUse">
<stop stop-color="#65CFB4"/>
<stop offset="1" stop-color="#5CA8CC"/>
</linearGradient>
</defs>
</svg>
